<svg id="Layer_1" data-name="Layer 1" xmlns="http://www.w3.org/2000/svg" viewBox="0 0 2400.1 2400.1"><defs><style>.cls-1{fill:#fff;}</style></defs><title>logov</title><g id="_9" data-name="9"><circle class="cls-1" cx="1200.05" cy="1200.05" r="437.5"/><path class="cls-1" d="M1335,64.94C673.87,18.56,100.33,516.9,53.94,1178s452,1234.66,1113.07,1281c313.42,22,607.14-78.47,834.36-260.64l-357.22-357.22q-21.38,14.56-43.73,27.5a699,699,0,0,1-122.93,56c-88.31,30.26-181,42.24-275.49,35.61s-184.59-31.44-267.81-73.73A699,699,0,0,1,820.28,1814a706.58,706.58,0,0,1-176-202.53,699,699,0,0,1-56-122.93c-30.26-88.31-42.24-181-35.61-275.49s31.44-184.59,73.73-267.81A699,699,0,0,1,699,831.29a706.57,706.57,0,0,1,202.53-176,698.94,698.94,0,0,1,122.93-56c88.31-30.26,181-42.24,275.49-35.61s184.59,31.44,267.81,73.73A699,699,0,0,1,1681.72,710a706.59,706.59,0,0,1,176,202.53,699,699,0,0,1,56,122.93c30.26,88.31,42.24,181,35.61,275.49s-31.44,184.59-73.73,267.81a697.08,697.08,0,0,1-45.25,76.45l357.19,357.2c147.7-184,242.79-413.28,260.56-666.47C2494.44,684.87,1996.1,111.33,1335,64.94Z" transform="translate(-50.95 -61.95)"/></g></svg>